<svg version="1.1" viewBox="0 0 333.99 82.621" xmlns="http://www.w3.org/2000/svg" xmlns:cc="http://creativecommons.org/ns#" xmlns:dc="http://purl.org/dc/elements/1.1/" xmlns:rdf="http://www.w3.org/1999/02/22-rdf-syntax-ns#">
<g transform="translate(-59.261 -70.897)">
<path d="m201.24 130.44h14.79v-14.706h-14.79v14.706z" fill="#98958c"/>
<path d="m216.01 117.94h0.02v-33.103l12.685 0.04278-0.02-11.514-40.215-0.03269 2e-3 11.504h12.757v45.606h4e-3c0.56249-2.9205 1.9675-5.6452 4.0975-7.9153 2.93-3.1641 6.2925-4.588 10.667-4.588" fill="#084168"/>
<path d="m81.786 119.68c-16.325-0.73076-22.525-10.786-22.525-24.64 0-14.723 8.725-24.708 21.955-24.123 13.155 0.58258 20.815 8.1413 22.272 19.452h-13.677c-0.67-4.0154-4.8675-7.4206-8.5725-7.4206-6.2575 0-7.7525 6.5266-7.7525 12.551 0 6.0218 2.08 12.365 8.155 12.365 3.8875 0 7.895-2.7699 8.26-7.054l13.68 0.0928c0 11.712-10.582 19.281-21.795 18.776" fill="#084168"/>
<path d="m105.19 118.29 0.42-44.991h35.837l-0.095 10.168h-21.655l0.0474 7.2373 18.33-0.09302v10.077l-18.42 0.0904 0.09 7.4206h21.682v10.517l-36.237-0.42691z" fill="#084168"/>
<path d="m171.73 118.44-13.795-23.766-0.0924 24-13.495-0.23355 0.2725-45.109 13.315-0.0904 15.595 24.183-0.27499-24.183 13.77 0.0904v45.342l-15.295-0.23355z" fill="#084168"/>
<path d="m230.29 118.51 0.41999-44.993h35.84l-0.0976 10.168h-21.655l0.05 7.2373 18.327-0.09303v10.077l-18.42 0.0904 0.0926 7.4206h21.682v10.517l-36.24-0.42441z" fill="#084168"/>
<path d="m297.95 118.86-15.92-23.789-0.20251 23.789h-13.052v-45.277h14.537l14.557 24.886v-24.886h13.36l2e-3 45.277h-13.282z" fill="#084168"/>
<path d="m349.73 118.12v-9.2111h-21.682l-0.09-7.4206 18.42-0.0904v-10.077l-18.33 0.09303-0.0476-7.2373h21.655l0.095-10.168h-35.837l-0.42 44.991 34.332 0.40181c0.43501-0.69312 1.15-1.1928 1.905-1.2807" fill="#084168"/>
<path d="m362.61 78.977c0 2.6694-2.1525 4.8341-4.8125 4.8341-2.6575 0-4.8125-2.1646-4.8125-4.8341 0-2.6694 2.155-4.8341 4.8125-4.8341 2.66 0 4.8125 2.1646 4.8125 4.8341z" fill="none" stroke="#084168" stroke-width=".87696"/>
<path d="m355.28 82.045v-6.391h2.825c0.565 0 0.99749 0.05529 1.2925 0.17071 0.295 0.11542 0.5325 0.31893 0.70749 0.60773 0.17501 0.2938 0.26501 0.61523 0.26501 0.96681 0 0.45201-0.14501 0.83621-0.44 1.1451-0.29 0.3139-0.7425 0.50978-1.3525 0.59516 0.2225 0.10816 0.39 0.21345 0.5075 0.3164 0.245 0.22853 0.4775 0.50978 0.6975 0.85131l1.1 1.7377h-1.0525l-0.84-1.3284c-0.24751-0.38423-0.45-0.67803-0.6075-0.88143-0.16-0.2034-0.3025-0.34403-0.4275-0.4269-0.125-0.08031-0.25499-0.13822-0.38499-0.16829-0.095-0.02018-0.25001-0.03269-0.46751-0.03269h-0.9775v2.8377h-0.84499zm0.84499-3.5684h1.81c0.385 0 0.685-0.04016 0.905-0.12047 0.215-0.08031 0.38-0.20593 0.4925-0.38423 0.1124-0.17576 0.16999-0.36663 0.16999-0.57254 0-0.30135-0.10999-0.54996-0.32749-0.74583-0.22-0.19352-0.565-0.2913-1.0375-0.2913h-2.0125v2.1144" fill="#084168"/>
<path d="m200.97 133.33c0 3.9928 1.4825 7.3151 4.23 9.4923 2.2075 1.7779 4.775 2.5288 8.5 2.5288 2.495 0 3.94-0.23605 6.0375-1.1049l0.7225-3.6789h-0.7225c-0.83249 1.8583-2.82 2.8477-5.785 2.8477-5.8225 0-9.945-4.2314-9.945-10.205 0-0.94673 0.09-1.9186 0.2525-2.8126l-2.9875-0.0803c-0.18 0.94422-0.30251 2.0366-0.30251 3.0134" fill="#98958c"/>
<path d="m204.26 130.44h11.772v-10.524c-0.2325-0.0182-0.46001-0.0426-0.70501-0.0426-5.415 0-9.9775 4.5603-11.067 10.567" fill="#084168"/>
<path d="m240.41 134.57c0 5.8913-4.41 10.876-9.6175 10.876-4.45 0-7.45-3.2821-7.45-8.2267 0-6.1298 4.34-10.758 10.127-10.758 3.975 0 6.94 3.4403 6.94 8.1086m-14.427 3.0838c0 3.5609 1.9875 5.8938 5.0275 5.8938 3.8325 0 6.7625-4.033 6.7625-9.294 0-3.5985-1.81-5.8938-4.665-5.8938-4.0525 0-7.125 3.9953-7.125 9.2939" fill="#98958c"/>
<path d="m255.78 130.3h-0.6525c-0.25249-1.1878-0.82999-1.7026-1.915-1.7026-0.725 0-1.4825 0.27873-2.2425 0.87138-0.50499 0.35658-0.93999 0.83121-1.2675 1.346-0.54 0.8287-0.7225 1.3435-1.12 3.4403l-2.1325 10.916h-2.7125l2.895-14.871 0.1776-0.75336c0.0376-0.19593 0.075-0.47462 0.075-0.6705 0-0.83121-0.32749-1.1074-1.3025-1.1074h-0.25501l0.1826-0.79101 4.5925-0.5148-0.76 3.8371c1.1575-2.4133 3.11-3.8371 5.245-3.8371 0.6875 0 1.3375 0.1582 2.095 0.5148l-0.9025 3.3223" fill="#98958c"/>
<path d="m258.92 150.71c-0.1074 0.59266-0.18 0.90906-0.18 1.0673 0 0.673 0.14499 0.79103 1.1925 1.1074l-0.1426 0.63283h-5.4975l0.10739-0.63283c0.3625-0.0402 0.50751-0.0803 0.76-0.19836 0.5775-0.27622 0.76-0.55245 0.94-1.5017l4.05-20.883 0.14501-0.75336c0.0726-0.23605 0.0726-0.47463 0.0726-0.67051 0-0.8312-0.28999-1.1074-1.265-1.1074h-0.255l0.14501-0.79104 4.63-0.51478-0.58 2.8879c0.58-0.71318 0.83249-0.94923 1.3025-1.346 1.2275-0.94924 3.0375-1.5419 4.5925-1.5419 3.6525 0 6.2925 2.9255 6.2925 7.0012 0 6.9209-5.535 11.983-13.2 11.983-0.8325 0-1.155-0.0402-2.06-0.15821l-1.05 5.4192zm1.7-7.1996c0.5425 0 1.0125 0.0402 1.41 0.0402 6.365 0 10.307-3.7568 10.307-9.7686 0-3.3625-1.7375-5.4192-4.485-5.4192-1.9175 0-3.6525 1.0673-5.2075 3.1239l-2.35 12.024h0.32499" fill="#98958c"/>
<path d="m295.38 134.57c0 5.8913-4.4125 10.876-9.62 10.876-4.4475 0-7.45-3.2821-7.45-8.2267 0-6.1298 4.34-10.758 10.125-10.758 3.98 0 6.945 3.4403 6.945 8.1086m-14.43 3.0838c0 3.5609 1.99 5.8938 5.0275 5.8938 3.8325 0 6.76-4.033 6.76-9.294 0-3.5985-1.8075-5.8938-4.665-5.8938-4.05 0-7.1225 3.9953-7.1225 9.2939" fill="#98958c"/>
<path d="m315.18 127.93c2.025-1.0296 4.015-1.464 6.365-1.464 3.725 0 5.785 1.346 5.785 3.7969 0 0.47463-0.0724 0.94924-0.18 1.5042l-1.7 8.8972c-0.1426 0.79101-0.21751 1.0698-0.21751 1.5042 0 0.8312 0.47001 1.4239 1.1575 1.4239 0.5425 0 0.94-0.19836 1.9175-0.98941l0.61499 0.67298c-1.375 1.4239-2.64 2.1747-3.7975 2.1747-1.7 0-2.6775-1.1476-2.7475-3.1239-1.7725 2.0566-4.05 3.1239-6.6175 3.1239-2.785 0-4.775-1.8583-4.775-4.4298 0-4.7863 5.135-8.1488 13.342-8.7013 0.1826-0.87139 0.1826-1.0673 0.1826-1.3837 0-1.6222-1.52-2.6493-3.9775-2.6493-0.9425 0-1.8825 0.15557-2.7125 0.51228-1.1925 0.4746-1.7 0.91156-2.64 2.0968h-0.65l0.65-2.9657zm5.245 6.6446c-4.195 1.0673-6.5825 3.2018-6.5825 5.8913 0 1.5444 1.265 2.7297 2.8925 2.7297 2.2425 0 4.52-1.1853 6.1125-3.1641l1.155-6.052c-2.0225 0.27873-2.565 0.35658-3.5775 0.59514" fill="#98958c"/>
<path d="m310.74 130.3h-0.6475c-0.255-1.1878-0.8325-1.7026-1.9175-1.7026-0.72501 0-1.4825 0.27873-2.2425 0.87138-0.505 0.35658-0.94 0.83121-1.265 1.346-0.54251 0.8287-0.72501 1.3435-1.12 3.4403l-2.135 10.916h-2.7125l2.8925-14.871 0.1826-0.75336c0.035-0.19593 0.07-0.47462 0.07-0.6705 0-0.83121-0.325-1.1074-1.3-1.1074h-0.255l0.1826-0.79101 4.5925-0.5148-0.76 3.8371c1.1575-2.4133 3.11-3.8371 5.2425-3.8371 0.6875 0 1.34 0.1582 2.0975 0.5148l-0.905 3.3223" fill="#98958c"/>
<path d="m338.51 126.74h3.6525l-0.255 1.3058h-3.65l-2.28 11.667c-0.18 0.87138-0.25249 1.7403-0.25249 2.2149 0 1.0296 0.68749 1.7001 1.77 1.7001 1.3775 0 2.28-0.55245 2.93-1.8583h0.58l-0.58 3.0059c-1.41 0.5148-2.205 0.673-3.5775 0.673-2.64 0-3.9075-1.0673-3.9075-3.2043 0-0.63283 0.0725-1.2255 0.29-2.3329l2.315-11.865h-2.135l0.255-1.3058c0.97499 0 1.12-0.0777 1.6275-0.27623 0.61251-0.27623 1.0475-1.1074 1.3375-2.5715l0.505-2.5313 2.5675-0.67298-1.1925 6.052" fill="#98958c"/>
<path d="m371.13 134.57c0 5.8913-4.4125 10.876-9.62 10.876-4.4475 0-7.45-3.2821-7.45-8.2267 0-6.1298 4.34-10.758 10.125-10.758 3.9775 0 6.945 3.4403 6.945 8.1086m-14.43 3.0838c0 3.5609 1.99 5.8938 5.0275 5.8938 3.8325 0 6.7625-4.033 6.7625-9.294 0-3.5985-1.8075-5.8938-4.6675-5.8938-4.05 0-7.1225 3.9953-7.1225 9.2939" fill="#98958c"/>
<path d="m347.8 139.71-0.29001 1.4239c-0.0724 0.27623-0.0724 0.55496-0.0724 0.79101 0 1.0296 0.435 1.6624 1.1575 1.6624 0.435 0 0.94-0.23855 1.88-0.94923l0.4725 0.59265c-1.16 1.346-2.6775 2.2149-3.9075 2.2149-1.445 0-2.4225-1.1074-2.4225-2.8075 0-0.51479 0.0376-0.87139 0.36249-2.4534l1.9175-9.8866 0.1426-0.75336c0.075-0.23605 0.075-0.47462 0.075-0.67048 0-0.83121-0.29249-1.1074-1.2675-1.1074h-0.25251l0.14501-0.79103 4.6275-0.5148-2.5675 13.249zm4.05-18.588c0 1.4239-1.23 2.7272-2.5325 2.7272-0.97499 0-1.6625-0.75086-1.6625-1.778 0-1.4238 1.2675-2.7296 2.5675-2.7296 0.9775 0 1.6275 0.75083 1.6275 1.7804" fill="#98958c"/>
<path d="m380.24 129.19c2.025-1.8608 4.085-2.7297 6.435-2.7297 2.965 0 4.955 1.7403 4.955 4.2715 0 0.51481-0.145 1.464-0.43249 2.8879l-1.23 6.3684c-0.2525 1.2255-0.3625 2.0165-0.3625 2.3706 0 0.67299 0.54249 1.1878 1.1925 1.1878 0.545 0 1.05-0.23855 1.9175-0.94923l0.54251 0.71068c-0.54251 0.63533-0.76 0.83119-1.1925 1.1476-0.8325 0.59516-1.955 0.98941-2.8575 0.98941-1.41 0-2.385-1.0673-2.385-2.6116 0-0.39425 0.10741-1.1853 0.25251-1.8985l1.48-7.6717c0.1826-0.90905 0.25501-1.5821 0.25501-2.0165 0-1.7026-1.3725-2.9657-3.2925-2.9657-1.155 0-2.4575 0.51228-3.6875 1.4615-0.76 0.59516-1.195 1.0296-2.135 2.1747l-2.565 13.252h-2.7475l2.9275-14.871 0.14261-0.75336c0.0374-0.19593 0.075-0.47462 0.075-0.67048 0-0.83121-0.32749-1.1074-1.2675-1.1074h-0.2525l0.145-0.79103 4.6275-0.5148-0.54 2.7297" fill="#98958c"/>
<path d="m220.26 125.09 3.2175-3.2018c-1.7325-2.7648-4.04-3.9501-7.5375-3.9551v1.9788c2.575 0.21095 4.32 1.5519 4.32 3.4403 0 0.4721-0.10741 0.75086-0.50751 1.1853l0.50751 0.55247" fill="#98958c"/>
</g>
</svg>
