<svg width="57" height="60" viewBox="0 0 57 60" fill="none" xmlns="http://www.w3.org/2000/svg" class="logo__griffin">
<path d="M3.7401 0.590388C7.64408 8.49681 17.2032 11.5957 21.532 12.368C23.2855 12.402 25.009 12.8296 26.575 13.6193C28.1411 14.409 29.5096 15.5406 30.5795 16.9303C31.9735 18.5966 34.5356 22.8616 34.6842 24.0007C35.1457 25.6863 34.829 25.5589 34.3811 26.6613C33.6088 28.9377 35.7732 28.704 35.6728 27.1942C36.2037 25.7654 35.7886 24.9622 35.3697 23.6204C34.246 21.5352 34.5858 18.7414 34.5336 17.6891C34.4796 14.2871 35.1129 11.6497 36.7135 10.526C36.8312 10.0163 36.6131 6.09882 37.2695 5.0678C37.926 4.03677 39.0226 5.17785 39.2466 8.56632C39.2968 9.16292 39.9919 9.26911 39.8876 8.32111C39.9784 7.09895 40.0035 6.77651 40.0807 5.29563C40.5595 3.8688 41.2565 4.79749 41.6021 6.13357C41.8261 6.88656 42.3744 7.79209 43.0289 9.26911C43.6197 10.109 49.076 13.2368 49.5935 13.5843C51.8312 15.4282 50.6786 17.2972 50.2924 17.8532C49.9063 18.4093 47.4137 16.633 46.624 16.4727C45.8343 16.3125 44.4036 16.8415 44.4191 17.8416C44.4191 18.444 44.8651 20.6007 44.95 20.8826C44.2337 21.3556 44.8747 22.0236 44.8747 22.0236C44.8747 22.0236 45.7204 22.8384 45.9212 23.1821C45.7532 23.8154 45.3188 23.7903 45.4829 24.3734C45.6903 24.6956 45.9786 24.9579 46.3189 25.1341C46.3189 25.1341 47.2496 27.6614 47.6511 28.6249C48.0527 29.5883 48.1049 33.1506 48.0682 33.724C48.0315 34.2974 48.157 35.3748 48.7517 34.0291C49.0432 33.6024 49.1378 34.0677 49.4371 32.7374C49.6128 32.0635 51.1844 30.9109 51.1844 30.9109C51.1844 30.9109 52.3834 29.7216 53.4666 29.1636C58.1776 27.9511 56.3627 32.135 56.1272 32.5849C55.8916 33.0347 56.1001 32.9556 54.988 33.6487C52.5668 31.8936 52.7348 36.7244 53.6191 36.9947C54.5845 37.3538 53.9164 38.603 52.2502 38.1338C51.7026 37.9819 51.1423 37.8804 50.5762 37.8307C49.8445 40.3947 48.2844 41.3871 47.8211 41.725C47.3577 42.0629 45.6065 42.5881 44.5021 42.1903C44.4867 42.7367 44.6469 47.4034 44.6469 47.4034C44.6469 47.4034 44.7106 47.7277 44.7821 48.2123C45.425 48.6333 45.1837 49.4789 45.2261 50.006C45.6258 50.5331 45.7803 50.7996 46.1664 50.8247C46.5526 50.8498 46.8287 50.3014 48.3269 50.3014C49.8252 50.3014 51.4509 52.1453 51.5648 52.9523C51.8911 55.1322 50.7732 54.5626 50.1978 54.0934C50.1399 54.6051 49.4661 55.806 48.9814 54.0934C48.854 53.5142 48.0914 53.8192 47.46 54.1706C46.9136 55.3291 45.7397 54.2112 45.4829 54.0181C45.2049 54.7093 44.5928 55.0472 44.114 54.6263C43.6236 54.6881 43.0521 54.7518 42.5173 54.3212C42.3128 54.5435 42.0488 54.7024 41.7566 54.7788C41.2391 55.4681 40.6696 54.9198 40.8453 54.3212C41.0074 53.8231 41.7855 53.3655 42.1968 52.9157C43.1873 51.7244 42.7393 51.3286 41.8666 50.7223C40.3664 50.2358 39.9687 49.0696 39.5594 48.1641C39.1501 47.2586 38.2928 47.7779 37.507 48.1641C35.7442 49.6855 30.6451 49.4055 29.2955 49.0754C27.5578 48.3938 24.4686 51.4232 24.0497 51.9715C22.5051 54.3927 23.3237 55.1379 24.1867 55.0974C25.0479 54.746 25.6367 54.6668 26.2237 55.7249C27.4381 55.6477 27.4014 56.4972 27.2431 57.3699C27.0848 58.2426 26.4978 58.1924 25.266 58.2059C24.4937 58.2329 19.5645 57.7483 19.5645 57.7483C19.0338 57.2466 18.5959 56.655 18.2709 56.001C17.3693 54.941 17.8075 54.7885 18.2709 54.1764C18.937 53.296 17.8404 53.6088 17.8404 53.6088C17.8404 53.6088 11.9805 54.6263 11.2198 54.8638C10.8453 55.0569 10.1734 55.2963 9.75632 56.001C9.4165 56.6652 9.81617 56.9046 10.9457 56.0782C11.6967 55.7288 11.9342 56.0261 12.3416 56.2288C12.749 56.4316 13.4846 56.8235 13.2529 57.2927C14.1584 57.7232 13.8012 57.6692 13.8611 58.2059C13.9615 59.6424 13.6487 59.1713 13.0618 59.3644C11.6118 59.9127 7.69428 60.461 8.00706 59.2466C7.37956 58.3063 6.20566 58.3526 5.42178 57.2135C4.16872 55.2113 5.89096 53.2922 6.63816 52.6511C7.65373 51.9213 9.71191 51.0023 10.8955 49.9133C12.079 48.8244 13.2568 46.6716 13.1004 45.5035C12.7857 45.5749 11.6118 46.5538 11.6118 46.5538L10.3973 47.4941C10.3973 47.4941 9.05932 47.6486 8.08043 47.7084C6.75207 48.6313 3.50068 46.9844 4.58384 43.9068C5.38124 41.976 6.57444 39.6109 5.49708 38.8135C1.8943 36.9947 2.61447 35.2242 2.60096 34.3283C2.31907 31.9033 4.04323 33.7491 4.04516 34.5562C4.43131 34.9191 6.70187 35.9077 6.78296 36.68C7.64601 37.8925 7.3757 40.5299 7.31392 41.6999C6.31379 45.9263 7.21545 47.6853 9.82389 44.513C10.741 43.6152 12.9131 41.3312 14.0059 40.7886C17.1279 39.5394 17.1762 39.3985 18.1107 38.4312C20.0646 37.3461 17.4561 37.0796 16.7437 36.7591C14.6199 36.6414 9.84127 34.0561 9.84127 34.0561C9.84127 34.0561 7.67497 33.056 7.54368 31.9709C7.41239 30.8858 7.44328 31.0383 7.46645 30.3741C5.34262 29.2389 5.6863 28.955 4.80588 27.9414C3.92545 26.9278 4.19962 26.418 4.73057 25.7365C4.63018 25.2828 2.74576 22.6955 2.29783 22.0101C1.33245 20.7764 1.80935 20.1103 2.67239 19.7589C2.03525 18.2239 1.00037 16.6986 0.701099 15.6232C0.0465747 13.8025 1.2224 12.98 1.2224 12.98C1.2224 12.98 -0.129127 10.6959 0.0156791 9.997C0.243508 8.94668 0.370942 8.78063 1.38459 8.6281C0.869076 6.86919 0.432721 5.6644 0.396037 5.13151C0.0465714 3.85335 1.06601 4.04836 1.37879 3.89197C1.06601 2.01142 1.67226 1.04218 1.91747 0.644448C2.67046 -0.239835 3.16473 -0.185774 3.7401 0.590388Z" fill="#292929"/>
<path d="M40.7195 6.87821C40.6153 7.08863 40.511 8.22952 41.0342 8.6021C41.6347 8.79514 41.6868 8.47083 41.4204 7.45348C41.1906 6.54231 40.8238 6.67551 40.7195 6.87821Z" fill="#FFD250"/>
<path d="M37.5859 6.64542L37.5067 11.007C37.1167 11.0521 36.7601 11.2491 36.5143 11.5553C36.4043 11.7484 36.1649 11.8836 36.1282 12.3643C36.2691 12.6983 36.9217 13.0594 36.6263 13.1482C36.3309 13.237 35.854 13.9031 35.6609 14.1657C35.4679 14.4283 35.3964 14.8666 35.576 15.0268C35.6957 15.0461 35.8675 14.8878 36.2093 14.8975C36.551 14.9071 36.4255 15.0075 36.2093 15.3145C35.993 15.6215 35.5412 17.0058 35.4003 17.1699C35.2593 17.3341 35.186 17.8515 35.3211 18.3284C35.4259 18.6469 35.5948 18.9406 35.8173 19.1914C35.9544 19.3845 35.9737 19.2127 35.5045 19.6606C35.2767 19.9483 35.2709 20.2823 35.3732 20.8615C35.4756 21.4408 35.3732 21.657 35.5045 22.1146C35.6358 22.5722 35.7941 22.8328 36.1822 23.5009C36.41 24.1863 36.6475 25.5938 36.7614 26.2425C36.8754 26.8913 36.4911 28.0169 36.3444 28.2795C36.1977 28.5421 34.5855 30.0538 33.2552 28.0439C32.9849 27.5265 33.344 26.87 34.0893 25.2501C34.5971 23.7673 33.1336 22.9815 32.5235 21.7246C31.9133 20.4677 30.5386 17.502 30.3803 17.9886C30.1737 18.0793 30.1351 18.0214 29.6872 17.8071C28.834 16.2438 27.4899 15.0048 25.8624 14.2815C24.1247 13.4841 23.6401 13.5092 22.2075 13.1829C20.7748 12.8566 19.3808 12.7678 17.3516 12.0129C16.0194 11.5746 16.4364 11.6943 13.297 10.366C9.95298 9.4257 4.6299 4.08139 3.56799 1.6776C3.01772 1.0057 2.87871 1.4575 2.77638 2.14484C2.67405 2.83219 2.81113 2.91714 2.72425 3.65855C2.45394 4.12386 1.89596 4.817 1.62565 5.33058C1.51753 5.89436 1.65847 7.18603 2.20488 8.20354C2.37864 8.63989 2.45781 9.39481 1.73571 9.71725C1.50208 9.99141 1.12559 10.3293 1.94422 11.0688C2.15854 11.4549 2.26666 12.0592 1.94422 11.9569C1.62179 11.8546 1.17193 11.5708 1.68358 12.6867C1.83997 13.127 2.00022 13.266 1.68358 13.6791C1.52139 13.9417 1.18351 13.9224 1.16034 14.4109C1.30321 14.9554 1.58511 15.1195 1.8921 15.664C2.19908 16.2084 2.06007 15.8918 2.78024 17.3881C2.67598 17.4036 1.98091 16.9054 2.04849 17.2317C2.21105 17.7562 2.45822 18.2505 2.78024 18.6952C3.11426 19.1741 4.18776 20.4657 4.45034 20.9928C4.25907 21.1458 4.01681 21.2203 3.77264 21.2014C3.77264 21.2014 3.07371 21.3809 3.4058 22.0374C3.56992 22.1764 3.90973 22.2961 4.24182 22.7691C4.08736 23.1553 4.14335 23.4352 4.71293 24.1786C5.12738 24.7645 5.619 25.2919 6.1745 25.7463C6.73442 26.1943 6.67457 26.8449 6.22663 26.9473C5.7787 27.0496 5.97949 27.0052 6.01811 27.7833C6.05672 28.5614 6.95452 29.1831 7.47969 29.5596C8.00485 29.9361 7.98748 29.8144 8.68255 30.3956C8.56284 30.9497 8.32536 31.2876 8.57829 31.805C9.19999 32.3012 9.10538 32.7704 9.77921 33.0581C10.453 33.3458 11.6269 34.2301 12.2332 34.4695C12.8395 34.7089 16.8303 36.2458 16.8303 36.2458C16.8303 36.2458 17.7957 36.6628 18.2938 36.825C18.792 36.9872 20.0161 37.3482 20.0161 37.3482C20.0161 37.3482 20.2593 37.3791 20.1744 37.9274C19.7226 38.2808 16.2395 41.1595 15.7336 41.48C15.2278 41.8005 14.0442 42.0631 13.5847 42.3952C13.1252 42.7273 12.2757 43.766 12.2332 44.0151C12.1907 44.2642 12.3529 44.2082 12.1289 44.4843C11.5833 45.0619 10.9693 45.5709 10.3005 45.9999C9.97615 46.052 9.91436 45.913 9.36024 46.1042C8.56284 46.5289 7.71524 46.7915 7.3233 46.7297C6.93136 46.668 6.20346 46.1389 6.07024 45.5288C5.93702 44.9187 6.3753 43.9031 6.1745 43.2833C5.93895 43.2467 5.41572 44.324 5.54894 45.2682C5.68216 46.2123 5.84048 46.6679 6.43515 47.0966C7.02982 47.5252 7.88128 47.7028 9.04746 47.0966C10.2136 46.4903 10.8257 46.1698 11.764 45.4245C12.7024 44.6793 12.8974 44.3723 13.436 44.1194C13.9747 43.8664 13.996 43.9514 14.1137 44.6986C14.2315 45.4458 13.6523 46.9325 13.436 47.5194C13.2198 48.1064 12.4224 49.5795 11.8162 50.236C11.2099 50.8924 9.7406 51.5354 9.15172 51.9601C8.56284 52.3849 7.22097 52.7749 6.90626 53.0568C6.59154 53.3387 6.63595 53.6959 6.43515 54.1535C6.10063 54.8212 5.90366 55.5493 5.85593 56.2947C5.99108 56.7407 6.495 57.2195 7.10898 57.706C7.72296 58.1926 8.19793 58.9417 8.67676 59.0576C9.15558 59.1734 9.25598 58.461 9.87768 58.7969C10.567 59.1696 10.65 58.7429 11.9668 58.4822C12.5247 58.3722 12.7545 58.3258 11.654 57.596C11.0651 57.2099 10.706 57.0515 9.82555 57.5419C9.11503 57.2716 8.58601 56.2927 9.19806 55.5571C9.8101 54.8215 10.5921 54.2326 12.2873 53.9913C13.9825 53.7499 16.5561 53.4854 17.564 53.2595C18.5718 53.0336 19.1549 52.7923 20.3848 51.6396C21.6147 50.487 22.1901 50.9465 22.0549 49.3942C22.0549 48.6779 21.7923 48.201 21.5858 47.3572C21.5549 46.6293 21.8812 46.0462 21.8464 46.1988C21.8116 46.3513 22.0124 45.8242 22.4256 46.0945C22.0395 46.8977 22.2538 47.6932 23.2095 47.7125C23.7887 47.8727 25.4569 47.5754 26.0825 47.3997C26.3914 47.1564 26.8548 46.7992 27.1791 46.9827C27.5846 47.0966 27.3066 47.948 28.0151 47.9751C28.2217 48.4095 28.3202 48.589 28.8377 48.6682C29.3551 48.7474 31.4905 48.9231 31.9848 48.9153C32.479 48.9076 34.6762 48.7725 35.3269 48.6006C35.9776 48.4288 36.6109 47.9905 36.8425 47.9229C37.0742 47.8554 37.0356 47.8322 37.0511 47.3437C37.2712 47.1931 37.5318 47.3321 37.9392 47.3437C38.1477 47.2317 37.9392 46.7548 37.6245 46.4556C37.6901 46.1389 38.0106 46.3417 38.252 46.5077C38.5448 46.7466 38.7776 47.0507 38.9316 47.3958C39.2019 47.5696 39.897 47.809 40.1963 47.9886C40.4955 48.1681 40.8759 49.1181 41.2813 49.5332C41.6868 49.9483 42.8259 50.7611 43.0576 50.9446C43.2893 51.128 43.4438 51.4852 43.3723 52.1455C43.3395 52.5587 43.0403 52.827 42.9012 52.9815C42.7622 53.136 42.5151 53.2595 42.5865 53.3464C42.658 53.4333 43.0113 53.3464 43.4245 52.9815C43.8377 52.6166 44.5327 52.6784 44.8107 52.6784C45.0888 52.6784 45.3745 52.5432 45.8785 52.5104C46.3824 52.4776 47.1373 52.5394 47.6548 52.3019C48.0525 52.4197 48.6201 52.5992 48.8557 52.9815C49.0487 53.136 49.8674 53.4777 50.0045 53.3464C50.1416 53.2151 49.8481 52.5625 49.8481 52.5625C49.8481 52.5625 50.4273 52.9178 50.3713 52.4061C50.3713 52.1223 50.0875 51.6667 49.7921 51.4659C49.4967 51.2651 49.3519 51.3384 49.0082 51.3616C48.6645 51.3848 47.4424 51.6744 47.4424 51.6744L46.8631 51.7786C46.8631 51.7786 48.373 50.989 48.3788 50.6298C48.3846 50.2707 46.952 51.0874 46.1835 51.3616C45.7781 51.5836 45.8534 51.601 45.139 50.9967C44.4246 50.3924 43.6253 47.5503 43.6774 46.2953C43.7295 45.0403 43.6948 43.1366 43.5731 42.5863C43.4992 42.2561 43.3755 41.9391 43.2063 41.6461C43.608 41.6684 44.0109 41.651 44.4092 41.5939C46.0657 41.787 48.0776 40.0378 48.6568 39.4083C49.236 38.7789 49.097 37.4621 49.6222 36.8984C50.045 36.8115 50.6204 36.8115 51.7634 37.3173C52.0144 37.3289 52.0955 37.5278 52.2345 37.159C52.3735 36.7902 52.2152 36.2052 52.2345 35.5932C52.2538 34.9811 52.5627 33.0542 52.9643 32.8245C53.3659 32.5947 54.1614 32.6932 54.3757 32.5117C54.4993 32.336 54.4008 32.2163 54.4201 31.5598C53.4065 31.639 53.6092 31.4845 53.5455 31.1428C53.5069 30.9381 54.5398 31.2413 54.061 30.5269C53.9239 30.048 53.2481 30.2682 52.8079 31.2586C52.5318 31.4807 52.6496 31.5598 52.2866 31.8842C51.9333 31.9189 51.5761 31.6795 51.4506 32.3032C51.1378 32.1777 50.6204 32.2375 50.9274 32.9287C50.6548 33.2587 50.4749 33.6552 50.4061 34.0775C49.767 34.286 48.1355 35.1607 47.8459 35.9059C47.6779 36.0353 47.5659 35.8519 47.3227 36.2728C47.0794 36.6937 47.1296 36.5527 46.9056 36.0102C46.8014 35.7573 46.9056 35.2785 46.5928 34.8614C46.2801 34.4444 46.7492 34.1818 46.7492 34.1818C46.7492 34.1818 47.0215 34.8614 47.3285 34.5486C47.564 34.4444 47.703 32.475 47.4868 31.5714C47.2068 31.6988 47.0466 31.7992 47.0678 32.4596C46.7492 32.5349 46.5117 32.2491 46.6508 31.8803C46.7898 31.5116 46.9269 29.9264 46.2858 29.1116C46.338 28.6993 46.2646 28.2808 46.0754 27.9107C45.9132 27.6172 45.4228 27.457 45.8669 27.3875C46.3109 27.318 46.5098 27.3991 46.2858 26.8082C46.0715 26.5978 45.6545 26.5573 45.4479 25.6595C45.2548 25.2057 45.0038 25.0223 44.8223 24.667C44.6835 24.3558 44.6296 24.0135 44.6659 23.6746C44.6795 23.4352 44.776 23.3503 44.7181 22.995C44.6602 22.6398 44.162 22.3019 43.7778 21.5836C43.6474 21.2298 43.5599 20.8616 43.5172 20.487C43.6162 20.4946 43.7151 20.4702 43.7992 20.4174C43.8833 20.3645 43.9483 20.286 43.9844 20.1935C44.0829 19.8749 43.6562 18.5331 43.6214 18.1894C43.5867 17.8457 43.884 17.2491 44.2412 16.9711C44.5395 16.7575 44.856 16.5708 45.1872 16.4131C45.1872 16.4131 45.6738 16.4343 46.0233 15.8339C46.3109 15.4342 46.8516 15.6408 47.4868 15.8339C48.122 16.0269 49.4639 16.7104 49.628 16.6679C49.7921 16.6255 50.1107 15.4168 49.7322 14.7893C49.3538 14.1618 48.4715 13.4899 47.1721 12.5419C45.8727 11.5939 44.998 11.5148 43.5172 11.4974C42.8897 11.4974 41.4184 11.0186 40.2773 11.1325C39.6865 10.978 39.1865 9.99141 38.9258 9.46046C38.6652 8.9295 38.4856 7.62238 38.1941 6.53537C37.9025 5.44836 37.5859 6.64542 37.5859 6.64542Z" fill="#FFD250"/>
<path d="M24.8989 55.8022C24.2781 55.6955 23.6477 55.656 23.0184 55.6844C22.6246 55.1186 22.3005 54.5074 22.053 53.864C21.6418 53.4779 20.1223 53.9026 19.1743 54.5107C18.6646 54.8235 18.9001 55.9006 19.0372 56.3331C19.1743 56.7655 19.8211 57.1149 20.2709 57.4083C20.7208 57.7018 22.2886 57.3504 22.3948 57.5261C22.501 57.7017 24.1189 57.7191 24.4317 57.8002C24.5881 57.8002 24.646 57.8794 24.6866 57.4141C24.8468 57.3871 25.038 56.9257 25.2658 57.6303C25.4473 57.7095 25.6191 57.4913 25.7021 57.3948C25.8392 57.1419 25.37 56.7481 24.5263 56.3968C24.507 56.0435 24.5263 55.8292 25.0766 56.2983C25.6635 55.9199 24.8989 55.8022 24.8989 55.8022Z" fill="#FFD250"/>
<path d="M6.32126 38.4582C5.78644 37.3887 4.89636 36.0393 4.25922 35.6571C4.86933 35.7594 5.55861 35.937 5.73624 36.3192C6.11467 36.7265 6.34443 38.128 6.32126 38.4582Z" fill="#FFD250"/>
<path d="M3.72051 36.217C3.79581 36.549 3.92323 36.9563 4.51018 37.6185C4.86544 38.1281 5.55472 38.0258 5.24773 37.5413C4.94074 37.0567 4.53528 36.7517 4.15299 36.3695C3.7707 35.9873 3.64328 35.8869 3.72051 36.217Z" fill="#FFD250"/>
<path d="M28.1387 21.3825C28.2155 21.3861 28.2906 21.359 28.3474 21.3073C28.4043 21.2555 28.4382 21.1833 28.4418 21.1065C28.4454 21.0297 28.4183 20.9546 28.3666 20.8978C28.3148 20.8409 28.2425 20.807 28.1657 20.8034C28.1657 20.8034 27.3162 20.7146 27.0478 20.1683C26.8547 19.7822 26.9976 19.1779 27.461 18.4482C27.5022 18.3832 27.5159 18.3045 27.4991 18.2294C27.4823 18.1542 27.4363 18.0889 27.3712 18.0477C27.3062 18.0065 27.2274 17.9928 27.1523 18.0096C27.0772 18.0264 27.0118 18.0724 26.9706 18.1374C26.3914 19.0621 26.2369 19.8304 26.5284 20.425C26.9416 21.2628 28.073 21.3767 28.1117 21.3902L28.1387 21.3825Z" fill="#292929"/>
<path d="M42.5595 12.8683C43.7569 13.0394 44.9119 13.4322 45.9653 14.0266C46.7647 14.2659 47.0852 13.7853 45.8437 12.7853C44.8281 12.2351 44.5462 12.1019 43.882 11.9436C42.6193 11.6444 41.0168 12.2756 42.5595 12.8683Z" fill="#292929"/>
<path d="M38.5262 16.6233C38.5698 16.6224 38.6126 16.6118 38.6516 16.5923C38.6906 16.5728 38.7248 16.5448 38.7516 16.5104C38.7784 16.476 38.7972 16.4361 38.8066 16.3935C38.8161 16.3509 38.8159 16.3068 38.8061 16.2643C38.7675 16.1021 38.9567 15.3685 39.2811 14.8628C39.4491 14.5983 39.5533 14.5635 39.5611 14.5597C39.6372 14.5552 39.7085 14.5209 39.7595 14.4641C39.8105 14.4074 39.837 14.3328 39.8333 14.2566C39.8321 14.2185 39.8232 14.181 39.8072 14.1464C39.7911 14.1117 39.7683 14.0807 39.74 14.0551C39.7117 14.0295 39.6785 14.0099 39.6425 13.9974C39.6064 13.985 39.5682 13.9799 39.5302 13.9825C39.3972 14.0018 39.2703 14.0507 39.1587 14.1256C39.0471 14.2004 38.9537 14.2993 38.8853 14.4149C38.5107 14.9207 38.1342 15.9593 38.2443 16.4033C38.2595 16.4664 38.2957 16.5225 38.3469 16.5624C38.3981 16.6024 38.4612 16.6239 38.5262 16.6233Z" fill="#292929"/>
<path d="M40.2754 16.8841C40.3522 16.8841 40.4259 16.8536 40.4802 16.7993C40.5345 16.745 40.565 16.6714 40.565 16.5946C40.565 16.2973 40.9029 15.7181 41.2871 15.6293C41.3616 15.6106 41.4257 15.5631 41.4651 15.4972C41.5046 15.4314 41.5163 15.3525 41.4976 15.278C41.4789 15.2035 41.4314 15.1395 41.3655 15.1C41.2996 15.0606 41.2207 15.0489 41.1462 15.0676C40.5032 15.2297 39.9877 16.0328 39.9877 16.6119C39.9921 16.6853 40.0243 16.7543 40.0778 16.8049C40.1312 16.8554 40.2019 16.8838 40.2754 16.8841Z" fill="#292929"/>
<path d="M40.5902 19.3381C40.0669 18.3729 40.1442 18.2918 40.0669 17.9868C39.8584 17.8054 39.5186 17.7532 39.5707 18.1799C39.648 18.8073 40.1191 19.5312 40.3025 19.9289C40.6674 20.0331 41.5034 20.0331 42.156 20.1644C42.8176 20.4831 43.4552 20.8495 44.0636 21.2609C44.4497 21.4964 44.4497 20.7918 44.1679 20.6084C43.886 20.425 43.0442 20.1644 42.7043 19.9559C42.3645 19.7474 41.4764 18.3362 41.2949 18.205C41.1134 18.0737 40.6674 18.205 41.0072 18.649C41.654 19.2262 41.1636 19.9636 40.5902 19.3381Z" fill="#292929"/>
<path d="M38.9954 21.688C39.0745 22.0741 39.3622 23.0973 39.5746 23.3598C39.704 23.5413 40.1538 24.1165 40.3315 23.8038C40.5091 23.4911 41.0111 22.993 41.5343 23.6996C41.7407 23.8745 41.9805 24.0058 42.239 24.0856C42.4476 24.1378 42.7874 24.0316 43.048 23.6416C43.3087 23.2517 43.2044 23.2227 43.884 23.4061C44.2391 23.4903 44.5818 23.6201 44.9035 23.7922L44.9286 23.244C44.9286 23.244 43.6485 22.9042 43.2836 22.2247C42.9167 21.8598 42.3182 21.8077 42.1348 22.0413C41.9514 22.2749 41.8992 22.5374 42.212 23.0606C42.239 23.4254 41.9514 23.6609 41.4822 22.9042C41.1675 22.6687 41.3509 21.939 41.096 21.7807C40.679 21.7556 40.7833 21.9371 40.6269 21.9371C40.4705 21.9371 40.0476 21.7035 40.0264 22.0162C40.0052 22.3289 40.2195 22.1204 40.2349 22.5953C40.2504 23.0702 39.8488 22.5413 39.5823 22.2092C39.3159 21.8772 39.3893 21.5568 39.2425 21.244C39.0958 20.9313 38.8139 21.1398 38.9954 21.688Z" fill="#292929"/>
<path d="M39.144 25.5976C39.3023 25.7018 39.4684 25.9007 39.7464 25.8582C40.0322 25.3099 40.2426 25.337 40.8682 25.8852C41.4957 26.1207 41.5208 25.8852 41.7312 25.8852C41.9417 25.8852 42.1174 26.4335 42.3838 26.669C42.6503 26.9045 43.1677 26.6419 43.3762 26.5107C43.5847 26.3794 43.5326 26.1458 43.689 25.9895C43.9767 25.3891 44.3416 25.7539 44.6293 26.1207C44.917 26.4875 45.7008 26.6999 45.7008 26.6999H46.3013L45.9016 26.0493C45.9016 26.0493 45.6391 26.2578 45.195 25.8659C44.7509 25.474 44.5443 25.0686 44.2489 24.7733C43.9246 24.2424 43.55 24.7733 43.2835 25.3698C43.0171 25.9663 42.8646 26.1806 42.3684 25.474C42.1869 24.4567 41.7891 24.3524 41.5961 24.8215C41.403 25.6053 41.0458 25.2076 40.733 24.9007C40.4202 24.5937 40.1538 24.5609 40.0804 24.8215C39.7927 25.5532 39.5591 24.9007 39.3757 24.586C39.1826 23.3081 38.8274 23.9335 38.8274 24.1999C38.6304 24.7173 38.9953 25.5011 39.144 25.5976Z" fill="#292929"/>
<path d="M39.258 28.4781C39.7271 28.2696 40.0669 28.897 40.2233 29.0013C40.3797 29.1055 40.484 29.2097 40.8238 28.897C41.32 28.4009 41.5555 29.0264 41.8432 29.4182C42.1309 29.8101 42.7043 29.6267 42.9399 29.4704C43.2276 28.5823 43.5191 28.6345 44.0636 29.0264C44.6081 29.4182 44.8204 29.2097 45.056 28.9472C45.2915 28.6847 45.2124 28.2947 45.3417 28.0071C45.4711 27.7194 46.5002 28.0071 46.5002 28.0071L46.3959 27.4859C46.3959 27.4859 45.1931 27.2774 44.8803 27.3816C44.5675 27.4858 44.3571 27.3816 44.2007 27.538C44.0443 27.6943 44.1234 28.0341 44.332 27.982C44.5405 27.9299 44.4884 28.0611 44.6196 27.8507C44.8011 27.9299 44.6718 28.5051 44.5154 28.6615C44.0443 28.6615 43.7836 28.2426 43.6523 28.2175C43.1832 27.1461 42.8434 27.8777 42.8163 28.2696C42.5557 29.3661 42.0595 28.8487 41.8761 28.2696C41.6926 27.6905 41.459 27.4337 40.8585 27.5129C40.2581 27.592 40.5168 27.4569 40.3623 27.7735C40.2021 28.2542 39.8391 26.9106 39.4221 27.3025C38.7946 27.2774 38.7173 26.8855 38.4818 26.2851C38.5339 25.1365 37.8543 25.5284 37.8813 25.899C37.8292 26.5245 38.2984 27.7793 38.5069 28.1712C38.7154 28.563 38.8139 28.5824 39.258 28.4781Z" fill="#292929"/>
<path d="M38.5783 31.6636C39.0745 30.986 39.6228 31.3258 39.6479 31.9783C39.8835 32.5787 40.3275 32.7621 40.6674 32.735C41.0072 31.7698 41.7119 32.3489 41.7911 32.542C41.8953 33.013 42.1309 33.0381 42.4437 32.8818C43.0229 31.9937 43.5673 32.3335 43.6446 32.8818C43.7759 33.5613 44.2972 33.1443 44.61 32.986C44.7663 31.654 45.7587 32.5169 45.89 32.5999C46.8554 32.9126 47.0388 31.6077 47.0388 31.6077C47.0388 31.6077 47.6393 30.903 47.0639 31.2698C46.5156 32.1559 45.9943 31.9995 45.6024 31.5034C45.0791 30.459 44.5057 30.5903 44.5308 30.9552C44.218 32.5999 43.8782 31.9744 43.4612 31.2698C43.1464 30.1115 42.9109 30.6675 42.7545 30.9552C42.6773 31.9204 41.9976 31.7119 41.71 31.7389C41.7891 30.3548 41.0303 31.2949 40.8489 31.5304C40.092 31.7119 39.8564 31.2949 39.6904 30.8509C39.7696 29.5189 39.0919 30.1714 39.0127 30.6154C38.6729 31.5806 38.4895 30.7467 38.5165 30.2505C38.5435 29.7544 38.4373 29.8857 37.9373 29.6231C37.86 28.8915 37.9373 28.5537 37.7558 27.822C37.5627 26.9861 37.416 27.405 37.2325 27.8742C37.0762 28.71 37.6187 30.3278 37.833 30.7988C38.0473 31.2698 38.3427 31.6385 38.5783 31.6636Z" fill="#292929"/>
<path d="M36.8542 34.5638C36.9651 34.8729 37.187 35.1297 37.4768 35.2842C37.7666 35.4387 38.1035 35.4799 38.422 35.3997C39.0475 34.3032 39.5804 35.1893 39.8063 35.7646C40.0322 36.3398 40.511 36.6526 40.903 36.4692C41.2949 36.2858 41.2891 36.6526 41.6347 35.9209C41.9803 35.1893 42.5731 36.5213 42.5731 36.5213C42.5731 36.5213 43.2006 36.7838 43.4882 36.4692C43.9323 35.7395 44.5328 36.6005 44.6892 36.8089C44.8456 37.0174 45.4982 36.5213 45.7337 35.9209C45.9693 35.3206 46.2048 34.9287 46.1006 34.6159C46.0832 34.0773 46.4867 34.2762 46.8304 34.8766C47.0679 35.0542 47.3787 35.06 47.4579 34.9808C47.1373 34.5821 46.7883 34.2073 46.4133 33.8592C45.8341 32.5272 45.3418 32.7878 45.3418 33.5716C45.3688 34.8515 45.4982 34.7993 45.2645 35.4248C44.8996 36.3398 44.3243 36.2356 44.22 35.6352C44.0636 34.5117 43.6408 35.4769 43.3319 35.8437C42.8357 36.6796 42.3916 35.8958 42.2352 35.2955C42.0267 33.365 41.5305 33.9113 41.3721 34.9808C41.2158 36.4441 40.6153 35.9209 40.3797 35.6082C40.1077 35.1889 39.88 34.7425 39.7001 34.2762C39.675 33.0754 39.1016 33.6488 38.9954 34.2241C38.8911 34.9808 37.5589 34.9287 37.2983 34.6681C37.0376 34.2241 36.8272 33.4673 36.8021 32.5002C36.8291 30.5427 36.0452 32.004 36.0973 32.8399C36.3059 33.8071 36.6727 33.9364 36.8542 34.5638Z" fill="#292929"/>
<path d="M47.0408 35.3482C46.8574 35.7652 46.4133 36.3927 46.1256 36.914C45.7394 38.8988 45.7086 38.0628 45.3417 37.7771C45.056 37.1225 44.8204 37.8273 44.5598 38.0628C44.1157 38.449 43.9805 38.1941 43.6446 37.75C43.3086 37.306 42.4166 37.4372 42.3645 37.8022C42.2351 38.5069 41.5555 38.142 41.2157 38.1883C40.4839 37.1438 40.7465 38.1091 41.0072 38.6324C41.6868 39.285 42.3124 40.7562 42.6792 41.1655C43.0461 41.5748 43.5673 42.4186 43.7237 42.4977C43.8801 42.5769 44.0887 42.3143 44.0365 42.1328C43.9844 41.9513 43.3318 41.1134 43.0962 40.7485C42.8607 40.3836 42.2873 39.285 42.2873 38.9973C42.183 38.2926 43.1754 37.667 43.3048 38.3717C43.6716 38.8158 44.0114 38.3447 44.4632 38.5011C44.8822 38.476 45.1429 38.1632 45.195 39.2077C45.614 39.8854 45.9267 39.3371 46.0831 38.7366C46.2762 37.8485 46.4075 37.6265 46.6836 37.3523C47.2126 36.8291 47.4559 35.6803 47.3362 35.5239C47.2165 35.3675 47.2223 35.2169 47.0408 35.3482Z" fill="#292929"/>
<path d="M40.0534 46.0928C40.0163 46.0773 39.9764 46.0696 39.9361 46.0702C39.8959 46.0708 39.8562 46.0798 39.8196 46.0965C39.783 46.1132 39.7503 46.1373 39.7235 46.1673C39.6966 46.1972 39.6763 46.2324 39.6637 46.2706C39.6512 46.3089 39.6467 46.3493 39.6505 46.3893C39.6543 46.4293 39.6664 46.4682 39.6859 46.5033C39.7055 46.5385 39.7321 46.5692 39.7641 46.5936C39.7961 46.6179 39.8328 46.6354 39.8719 46.6449C41.3373 47.1237 42.8452 49.612 42.8858 50.0773C42.8925 50.1493 42.926 50.2162 42.9796 50.2648C43.0332 50.3134 43.1031 50.3401 43.1754 50.3398H43.1986C43.2365 50.3364 43.2734 50.3256 43.3071 50.3079C43.3408 50.2903 43.3707 50.2661 43.3951 50.2369C43.4195 50.2077 43.4379 50.1739 43.4492 50.1376C43.4605 50.1013 43.4646 50.0631 43.4612 50.0252C43.4013 49.3456 41.7486 46.643 40.0534 46.0928Z" fill="#292929"/>
<path d="M41.7602 45.5811C41.8021 45.6024 41.8483 45.6136 41.8953 45.614C41.9602 45.6142 42.0234 45.5927 42.0746 45.5528C42.1258 45.5129 42.1621 45.4569 42.1777 45.3939C42.1933 45.3309 42.1872 45.2644 42.1605 45.2053C42.1338 45.1461 42.088 45.0976 42.0305 45.0676C40.6172 44.3204 39.8893 43.048 39.5205 42.1116C39.5046 42.0746 39.4824 42.0406 39.4548 42.0112C39.1614 41.7177 37.2673 39.0475 36.0664 37.3233C36.0223 37.2603 35.9551 37.2174 35.8794 37.204C35.8037 37.1906 35.7258 37.2078 35.6628 37.2519C35.5999 37.2959 35.557 37.3632 35.5436 37.4388C35.5302 37.5145 35.5474 37.5924 35.5914 37.6554C35.8907 38.084 38.4566 41.7621 38.9992 42.3722C39.4124 43.3955 40.2136 44.7625 41.7602 45.5811Z" fill="#292929"/>
<path d="M37.5338 45.845C37.3137 45.7118 36.9101 45.6674 36.7769 45.5593C36.4101 45.013 36.3773 44.0304 36.3058 43.4359C36.3058 42.3239 35.7034 42.8374 35.7575 43.3316C35.8116 43.8258 35.7111 44.0439 35.7054 44.4551C36.468 45.3837 35.2864 44.9686 35.1049 44.82C34.7921 44.4513 34.0237 43.6173 33.8248 43.3567C33.6858 42.6019 33.066 42.71 32.9888 42.9397C32.8536 43.2718 32.0601 43.4069 31.7357 43.5189C31.4114 43.6308 30.4827 43.8277 29.9865 43.7273C29.4903 43.627 28.7045 43.5845 28.4187 43.3413C28.133 43.098 28.3588 42.8355 28.3395 42.322C28.3202 41.8085 27.7816 42.0672 27.6869 42.2448C27.5923 42.4224 27.461 43.127 27.6869 43.5748C27.9881 44.154 28.8589 44.154 29.386 44.2022C30.0841 44.2271 30.783 44.1922 31.4751 44.098C31.896 44.022 32.3072 43.8996 32.7011 43.7331C33.1162 42.7853 33.6453 43.9069 33.6955 44.1771C33.7456 44.4474 34.8114 45.3258 35.0779 45.403C35.9583 45.3064 35.9486 45.1733 36.4622 45.6906C37.1824 45.9474 38.1342 47.0747 38.1342 47.0747C38.1342 47.0747 38.42 47.235 38.3698 46.9705C38.2447 46.5026 37.9456 46.1 37.5338 45.845Z" fill="#292929"/>
<path d="M37.5994 47.3529C37.08 47.0131 36.0123 46.6058 35.659 46.7622C35.6345 46.7728 35.6117 46.7872 35.5914 46.8046C34.8906 47.3838 31.7743 46.9861 31.1372 46.4861L31.1024 46.4629C30.1506 45.9186 28.6233 45.3201 27.9592 45.2332C27.6908 45.1966 26.0709 45.0093 25.1519 44.9977C25.2932 44.6742 25.4812 44.373 25.7098 44.1039C25.9004 43.8693 26.0733 43.6209 26.2273 43.3607C26.2627 43.2946 26.2711 43.2174 26.2506 43.1452C26.2302 43.073 26.1826 43.0116 26.1178 42.9739C26.0531 42.9361 25.9761 42.9249 25.9033 42.9427C25.8304 42.9605 25.7673 43.0058 25.7272 43.0692C25.5827 43.3068 25.4207 43.5333 25.2426 43.7468C24.8783 44.1761 24.6056 44.6754 24.4413 45.2139C24.4263 45.2608 24.4234 45.3107 24.4329 45.3589C24.4423 45.4072 24.4638 45.4523 24.4954 45.49C24.527 45.5276 24.5678 45.5566 24.6137 45.5742C24.6596 45.5917 24.7093 45.5973 24.758 45.5904C25.2329 45.5228 27.156 45.712 27.8723 45.8066C28.3994 45.8761 29.8417 46.4205 30.7858 46.9649C31.6257 47.5903 34.8713 48.0015 35.8791 47.3104C36.3731 47.3978 36.8457 47.5794 37.2712 47.8451C37.3179 47.8767 37.3731 47.8935 37.4295 47.8934C37.4921 47.8937 37.5531 47.8736 37.6034 47.8363C37.6537 47.7989 37.6905 47.7463 37.7083 47.6863C37.7261 47.6263 37.724 47.5621 37.7023 47.5034C37.6806 47.4447 37.6404 47.3946 37.5878 47.3606L37.5994 47.3529Z" fill="#292929"/>
<path d="M21.7345 55.0572C21.6925 54.9927 21.6266 54.9475 21.5512 54.9316C21.4759 54.9157 21.3974 54.9303 21.3329 54.9723C21.2683 55.0143 21.2231 55.0802 21.2072 55.1555C21.1913 55.2308 21.2059 55.3093 21.2479 55.3738L21.8754 56.339C21.9019 56.3793 21.938 56.4124 21.9805 56.4353C22.023 56.4583 22.0704 56.4703 22.1187 56.4703C22.1747 56.4699 22.2296 56.4539 22.277 56.424C22.3089 56.4031 22.3363 56.3761 22.3577 56.3446C22.3791 56.3131 22.3941 56.2777 22.4018 56.2404C22.4095 56.2031 22.4098 56.1647 22.4026 56.1273C22.3955 56.0899 22.381 56.0542 22.36 56.0224L21.7345 55.0572Z" fill="#292929"/>
<path d="M19.8906 55.0283L19.2245 55.4395C19.1641 55.4819 19.1221 55.5457 19.1072 55.618C19.0923 55.6903 19.1056 55.7655 19.1443 55.8283C19.1829 55.8911 19.2442 55.9368 19.3154 55.9561C19.3866 55.9753 19.4625 55.9666 19.5276 55.9318L20.1937 55.5206C20.2285 55.5019 20.2592 55.4764 20.2837 55.4454C20.3083 55.4145 20.3263 55.3789 20.3366 55.3408C20.3469 55.3026 20.3493 55.2628 20.3436 55.2237C20.3379 55.1846 20.3243 55.1471 20.3036 55.1135C20.2829 55.0799 20.2555 55.0508 20.2232 55.0282C20.1908 55.0055 20.1542 54.9897 20.1155 54.9817C20.0768 54.9737 20.0369 54.9737 19.9982 54.9818C19.9595 54.9898 19.9229 55.0056 19.8906 55.0283Z" fill="#292929"/>
<path d="M19.377 50.3945L18.8712 50.1184C18.514 50.7535 11.8452 53.4002 9.64799 53.099L9.56689 53.6782C9.7173 53.6982 9.8689 53.7078 10.0206 53.7071C11.6386 53.7071 14.2992 52.8191 15.139 52.5238C15.5252 52.3886 18.9793 51.157 19.377 50.3945Z" fill="#292929"/>
<path d="M6.9777 54.7269C6.82707 55.3295 6.81322 55.9581 6.93716 56.5666C7.05493 56.9971 7.83882 57.9778 7.60327 57.1149C7.36772 56.252 7.87743 55.001 7.87743 54.335C8.11299 52.4934 6.58576 54.1729 6.9777 54.7269Z" fill="#292929"/>
<path d="M16.9654 43.0519C17.5157 42.8955 17.9076 41.6424 16.614 42.4726C16.1835 42.6657 16.4963 42.629 16.1835 42.824C15.8707 43.019 15.5888 43.0905 15.3957 43.9921C15.2027 44.8938 14.8165 45.5194 14.691 46.1468C14.5655 46.7743 14.4168 47.3227 14.5346 48.1838C15.1139 48.4193 15.0038 48.4193 15.5908 49.1627C16.0213 49.5952 17.3149 49.6338 15.9441 48.3788C14.9266 47.2821 15.6313 45.6371 15.9827 45.2452C16.3341 44.8532 16.2607 43.1677 16.9654 43.0519Z" fill="#292929"/>
<path d="M25.8218 40.3059C26.3219 40.3889 27.0672 40.3059 27.8878 39.5202C28.2007 39.8683 28.5815 40.1488 29.0069 40.3443C29.4322 40.5398 29.893 40.6463 30.361 40.6572H30.4653C31.6527 40.6167 32.8034 39.9082 33.7051 38.665C33.7291 38.6344 33.7467 38.5994 33.7569 38.5618C33.7671 38.5243 33.7696 38.4851 33.7643 38.4466C33.759 38.4081 33.746 38.3711 33.7261 38.3377C33.7062 38.3043 33.6797 38.2753 33.6484 38.2524C33.617 38.2294 33.5813 38.213 33.5435 38.2042C33.5056 38.1953 33.4664 38.1941 33.4281 38.2008C33.3898 38.2074 33.3532 38.2216 33.3205 38.2427C33.2878 38.2637 33.2597 38.2912 33.2379 38.3233C32.4424 39.4217 31.45 40.0433 30.446 40.0781C29.5965 40.1051 28.7624 39.692 28.1156 38.9198C28.0891 38.8881 28.0561 38.8624 28.0189 38.8444C27.9816 38.8265 27.9409 38.8167 27.8996 38.8158C27.8583 38.8149 27.8172 38.8229 27.7792 38.8391C27.7412 38.8554 27.7071 38.8796 27.6792 38.9102C27.1 39.5491 26.4899 39.8368 25.9107 39.7441C25.3025 39.6457 24.7522 39.1187 24.3873 38.3001C24.372 38.2648 24.3498 38.2328 24.3221 38.2061C24.2943 38.1794 24.2614 38.1585 24.2255 38.1447C24.1895 38.1308 24.1511 38.1243 24.1126 38.1255C24.0741 38.1267 24.0362 38.1355 24.0012 38.1515C23.0821 38.555 22.3407 38.6264 21.8561 38.36C21.6989 38.2649 21.5635 38.138 21.4584 37.9874C21.3533 37.8367 21.2809 37.6658 21.246 37.4855C21.2404 37.4468 21.227 37.4096 21.2068 37.3762C21.1865 37.3428 21.1597 37.3138 21.128 37.2909C21.0963 37.268 21.0603 37.2518 21.0222 37.2431C20.9841 37.2344 20.9446 37.2334 20.9062 37.2403L19.5064 37.4951C19.4295 37.5087 19.3613 37.5522 19.3166 37.6161C19.2718 37.68 19.2543 37.7591 19.2679 37.8359C19.2815 37.9127 19.325 37.9809 19.3889 38.0256C19.4528 38.0704 19.5319 38.0878 19.6087 38.0743L20.7478 37.8658C20.8889 38.2897 21.1809 38.647 21.5684 38.8696C22.1747 39.2075 22.9817 39.1843 23.9741 38.7982C24.424 39.636 25.0824 40.1862 25.8218 40.3059Z" fill="#292929"/>
<path d="M28.4921 37.1534L28.0075 37.8928C27.9865 37.9246 27.972 37.9602 27.9648 37.9976C27.9577 38.035 27.9579 38.0734 27.9657 38.1107C27.9734 38.148 27.9884 38.1835 28.0098 38.215C28.0312 38.2465 28.0586 38.2734 28.0905 38.2943C28.1378 38.3245 28.1927 38.3405 28.2488 38.3406C28.2971 38.3406 28.3445 38.3286 28.387 38.3057C28.4294 38.2827 28.4656 38.2497 28.4921 38.2094L28.9748 37.4719C28.9982 37.4403 29.015 37.4042 29.0241 37.3659C29.0331 37.3276 29.0343 37.2878 29.0275 37.2491C29.0206 37.2103 29.006 37.1733 28.9844 37.1404C28.9627 37.1075 28.9346 37.0793 28.9018 37.0576C28.8689 37.0359 28.832 37.0212 28.7932 37.0142C28.7544 37.0073 28.7147 37.0084 28.6763 37.0173C28.638 37.0263 28.6018 37.043 28.5702 37.0664C28.5385 37.0898 28.5119 37.1194 28.4921 37.1534Z" fill="#292929"/>
<path d="M25.2098 36.358L24.8024 36.9371C24.7584 37.0001 24.7412 37.078 24.7546 37.1536C24.768 37.2293 24.8109 37.2965 24.8739 37.3406C24.9368 37.3846 25.0147 37.4018 25.0904 37.3884C25.1661 37.375 25.2333 37.3321 25.2774 37.2691L25.6848 36.69C25.7088 36.6589 25.7263 36.6233 25.7362 36.5853C25.7461 36.5472 25.7481 36.5076 25.7421 36.4688C25.7362 36.4299 25.7224 36.3927 25.7016 36.3594C25.6808 36.326 25.6534 36.2973 25.6212 36.2748C25.5889 36.2524 25.5524 36.2368 25.5139 36.2289C25.4754 36.221 25.4357 36.2211 25.3972 36.229C25.3587 36.237 25.3223 36.2527 25.29 36.2752C25.2578 36.2977 25.2305 36.3265 25.2098 36.3599V36.358Z" fill="#292929"/>
<path d="M22.0897 35.7652L21.7325 36.3771C21.6938 36.4437 21.6832 36.5229 21.7029 36.5973C21.7227 36.6717 21.7712 36.7352 21.8377 36.7739C21.9043 36.8125 21.9835 36.8231 22.0579 36.8034C22.1323 36.7837 22.1958 36.7352 22.2345 36.6686L22.5897 36.0567C22.6091 36.0239 22.6218 35.9876 22.627 35.9499C22.6323 35.9122 22.63 35.8739 22.6203 35.8371C22.6106 35.8002 22.5937 35.7657 22.5705 35.7355C22.5474 35.7053 22.5185 35.6799 22.4855 35.661C22.419 35.6229 22.3403 35.6125 22.2662 35.632C22.1921 35.6515 22.1287 35.6993 22.0897 35.7652Z" fill="#292929"/>
<path d="M22.0415 44.6911C21.5433 45.2799 19.7535 45.8744 18.8963 45.7374C18.8195 45.7251 18.7409 45.7438 18.6779 45.7894C18.6149 45.835 18.5726 45.9038 18.5603 45.9806C18.548 46.0574 18.5668 46.136 18.6124 46.1989C18.658 46.2619 18.7268 46.3042 18.8036 46.3165C18.925 46.3348 19.0476 46.3438 19.1704 46.3435C20.271 46.3435 21.9237 45.7335 22.4836 45.0714C22.5333 45.0127 22.5576 44.9368 22.5513 44.8602C22.5449 44.7837 22.5084 44.7127 22.4498 44.6631C22.3912 44.6134 22.3152 44.5891 22.2386 44.5954C22.1621 44.6017 22.0911 44.6382 22.0415 44.6969V44.6911Z" fill="#292929"/>
<path d="M16.9766 14.4775L16.8585 15.0445L18.1116 15.3056L18.2298 14.7386L16.9766 14.4775Z" fill="#292929"/>
<path d="M18.3282 17.5535L17.0222 17.6061L17.0455 18.1848L18.3516 18.1321L18.3282 17.5535Z" fill="#292929"/>
<path d="M19.1593 21.3746L18.062 21.4269L18.0895 22.0054L19.1869 21.9531L19.1593 21.3746Z" fill="#292929"/>
<path d="M20.4046 24.6431L19.1985 24.8502L19.2969 25.4235L20.5031 25.2164L20.4046 24.6431Z" fill="#292929"/>
<path d="M21.4792 26.8542L20.4346 27.4811L20.7327 27.9777L21.7772 27.3508L21.4792 26.8542Z" fill="#292929"/>
<path d="M23.3559 29.6572L22.7812 30.2319L23.1907 30.6414L23.7655 30.0667L23.3559 29.6572Z" fill="#292929"/>
<path d="M25.705 32.1662L25.1302 32.7408L25.5397 33.1504L26.1145 32.5758L25.705 32.1662Z" fill="#292929"/>
<path d="M28.4522 33.1504L28.2435 33.7256L28.788 33.9232L28.9967 33.3479L28.4522 33.1504Z" fill="#292929"/>
<path d="M32.1095 33.8127L32.0568 34.3875L32.6336 34.4404L32.6863 33.8656L32.1095 33.8127Z" fill="#292929"/>
<path d="M19.7361 19.8056C19.8104 20.131 19.9518 20.4374 20.1512 20.705C20.3507 20.9726 20.6039 21.1957 20.8945 21.3599C20.6918 23.0454 21.8753 24.368 22.8118 24.8352C22.7024 25.0051 22.6321 25.1971 22.6061 25.3975C22.58 25.5978 22.5988 25.8015 22.6612 25.9937C22.8967 26.6482 23.6767 27.0247 24.3988 27.2371C24.3026 27.4454 24.251 27.6715 24.2473 27.9009C24.2436 28.1304 24.288 28.358 24.3776 28.5693C24.7483 29.4014 25.7986 29.7741 26.2408 29.8957C26.7331 32.1141 27.5382 32.2435 28.7778 32.1122C28.9828 32.4827 29.3232 32.7594 29.7277 32.8845C29.9101 32.9384 30.0994 32.9651 30.2896 32.9637C30.8298 32.9402 31.3578 32.795 31.8342 32.5389L32.757 32.8613C32.7929 32.8744 32.831 32.8802 32.8691 32.8783C32.9072 32.8764 32.9445 32.8669 32.9789 32.8503C33.0133 32.8338 33.044 32.8105 33.0692 32.7819C33.0944 32.7533 33.1137 32.7199 33.1258 32.6837C33.1511 32.6113 33.1466 32.5317 33.1133 32.4626C33.08 32.3934 33.0206 32.3403 32.9482 32.3149L31.9037 31.95C31.8635 31.9359 31.8206 31.9308 31.7782 31.9352C31.7359 31.9395 31.695 31.9532 31.6585 31.9751C31.6585 31.9751 30.6564 32.5659 29.8899 32.3304C29.7341 32.2793 29.5913 32.1947 29.4716 32.0827C29.3519 31.9706 29.258 31.8337 29.1967 31.6817C29.1706 31.627 29.1282 31.5818 29.0752 31.5524C29.0223 31.523 28.9615 31.5108 28.9013 31.5175C27.6966 31.6623 27.1965 31.7222 26.764 29.6061C26.7529 29.5509 26.726 29.5002 26.6866 29.4601C26.6472 29.42 26.5969 29.3922 26.542 29.3802C26.0573 29.2759 25.1692 28.94 24.9008 28.3376C24.7541 28.0094 24.8062 27.6367 25.0591 27.1965C25.0819 27.1577 25.0952 27.114 25.0979 27.069C25.1006 27.024 25.0926 26.9791 25.0746 26.9378C25.0574 26.8969 25.0311 26.8604 24.9976 26.8313C24.9641 26.8022 24.9244 26.7812 24.8815 26.7698C23.9586 26.5536 23.3369 26.2003 23.2037 25.8044C23.113 25.5496 23.2037 25.2387 23.4779 24.8777C23.5063 24.8398 23.5251 24.7956 23.5324 24.7488C23.5398 24.702 23.5356 24.6541 23.5202 24.6093C23.5047 24.5645 23.4785 24.5242 23.4439 24.4919C23.4093 24.4596 23.3672 24.4362 23.3215 24.424C22.6863 24.2541 21.161 23.0242 21.495 21.2575C21.5072 21.192 21.4967 21.1243 21.4651 21.0656C21.4334 21.0069 21.3827 20.9609 21.3212 20.9351C21.0688 20.8196 20.846 20.6481 20.6697 20.4337C20.4934 20.2192 20.3682 19.9675 20.3037 19.6975C20.1937 19.1685 20.3751 18.6529 20.8443 18.1664C20.8926 18.1167 20.9213 18.0513 20.9252 17.9821C20.9291 17.9129 20.908 17.8447 20.8656 17.7899C20.4794 17.286 20.2091 16.3322 20.4427 15.6661C20.4946 15.5005 20.5901 15.352 20.7192 15.2362C20.8483 15.1203 21.0062 15.0414 21.1764 15.0077C21.2509 14.989 21.3149 14.9415 21.3544 14.8756C21.3939 14.8097 21.4056 14.7308 21.3869 14.6563C21.3682 14.5818 21.3207 14.5178 21.2548 14.4783C21.1889 14.4388 21.11 14.4271 21.0355 14.4458C20.7725 14.504 20.5291 14.6293 20.3291 14.8097C20.129 14.9901 19.9793 15.2193 19.8944 15.4749C19.6144 16.2781 19.8654 17.2898 20.269 17.9405C19.6627 18.6472 19.6434 19.3422 19.7361 19.8056Z" fill="#292929"/>
<path d="M25.2059 20.4576C25.3017 20.4569 25.3973 20.4485 25.4917 20.4325C25.5297 20.4259 25.5661 20.4119 25.5987 20.3912C25.6313 20.3706 25.6595 20.3437 25.6818 20.3122C25.704 20.2806 25.7198 20.245 25.7283 20.2074C25.7367 20.1697 25.7377 20.1307 25.7311 20.0927C25.7245 20.0547 25.7105 20.0183 25.6898 19.9857C25.6692 19.9531 25.6423 19.9249 25.6108 19.9027C25.5792 19.8804 25.5436 19.8646 25.5059 19.8562C25.4683 19.8477 25.4293 19.8468 25.3913 19.8533C24.8796 19.946 24.3738 19.641 24.1305 19.0985C23.8679 18.5194 23.9374 17.6198 24.8893 16.8689C24.95 16.8215 24.9893 16.752 24.9988 16.6756C25.0082 16.5992 24.9869 16.5222 24.9395 16.4615C24.8921 16.4009 24.8226 16.3615 24.7462 16.3521C24.6698 16.3427 24.5928 16.364 24.5321 16.4114C23.7598 17.0117 23.0647 18.1372 23.6015 19.336C23.7304 19.659 23.951 19.9372 24.2361 20.1365C24.5212 20.3358 24.8583 20.4474 25.2059 20.4576Z" fill="#292929"/>
<path d="M25.7156 21.5839C25.6531 21.5391 25.5753 21.5209 25.4994 21.5332C25.4234 21.5455 25.3554 21.5873 25.3102 21.6495C24.9009 22.2286 24.7676 22.7595 24.9144 23.2537C25.1828 24.1513 26.2794 24.5722 26.7486 24.7517C26.7811 24.7648 26.8159 24.7713 26.8509 24.771C26.9186 24.7711 26.9841 24.7475 27.0362 24.7043C27.0883 24.661 27.1235 24.601 27.1359 24.5345C27.1483 24.468 27.137 24.3992 27.104 24.3402C27.071 24.2811 27.0183 24.2355 26.9552 24.2112C26.5999 24.0761 25.6558 23.7131 25.4704 23.0877C25.3758 22.7749 25.482 22.4043 25.7813 21.9873C25.826 21.9251 25.8441 21.8477 25.8318 21.772C25.8195 21.6964 25.7777 21.6287 25.7156 21.5839Z" fill="#292929"/>
<path d="M28.2141 25.7581C27.0691 27.926 27.7874 28.8179 28.3164 29.1576C28.6658 29.3674 29.0673 29.4745 29.4748 29.4665C30.1448 29.4665 30.8071 29.2175 31.0986 28.8372C31.1267 28.7773 31.1335 28.7096 31.1178 28.6453C31.1021 28.5811 31.0649 28.5241 31.0123 28.4839C30.9597 28.4438 30.895 28.4228 30.8288 28.4246C30.7627 28.4263 30.6991 28.4507 30.6487 28.4936C30.3707 28.8565 29.2702 29.0843 28.633 28.6866C27.9959 28.2889 28.0538 27.3488 28.7334 26.0458C28.7693 25.9777 28.7766 25.8981 28.7538 25.8246C28.731 25.7511 28.6799 25.6897 28.6118 25.6539C28.5781 25.6361 28.5412 25.6252 28.5032 25.6217C28.4653 25.6182 28.427 25.6222 28.3906 25.6335C28.3171 25.6563 28.2557 25.7074 28.2199 25.7755L28.2141 25.7581Z" fill="#292929"/>
<path d="M30.8514 26.391H30.8746C30.9514 26.3939 31.0262 26.3661 31.0825 26.3137C31.1388 26.2614 31.172 26.1889 31.1748 26.1121C31.1776 26.0353 31.1498 25.9605 31.0975 25.9042C31.0452 25.8479 30.9727 25.8147 30.8958 25.8119C30.5097 25.781 29.9305 25.6189 29.859 25.3911C29.8416 25.3331 29.8088 25.005 30.7839 24.2965C30.8429 24.2501 30.8816 24.1826 30.8918 24.1083C30.9021 24.0339 30.883 23.9585 30.8387 23.8979C30.7944 23.8373 30.7282 23.7963 30.6543 23.7835C30.5803 23.7707 30.5042 23.7871 30.4421 23.8293C29.5327 24.4915 29.1601 25.0532 29.301 25.5494C29.5018 26.254 30.6275 26.3698 30.8514 26.391Z" fill="#292929"/>
<path d="M27.9457 17.5345C28.0673 17.5732 28.6523 17.8434 28.4148 17.1176C28.1773 16.3917 24.2502 14.0501 23.5571 14.1408C25.2233 15.2952 27.2448 16.716 27.9457 17.5345Z" fill="#292929"/>
<path d="M14.1679 15.0534C14.0626 15.2942 13.9974 15.5505 13.9748 15.8122C13.9349 16.652 14.1889 17.4795 14.693 18.1523C14.1485 19.527 14.9575 21.3651 15.8727 22.1393C15.6429 23.1471 15.9557 24.516 16.4114 25.2768C16.496 25.4252 16.6043 25.5589 16.7319 25.6726C16.6055 26.1849 16.6743 26.7258 16.925 27.1901C17.2688 27.9292 17.869 28.5185 18.6144 28.8487C18.4541 29.621 18.5313 30.5863 19.0662 31.2177C19.3519 31.5517 19.879 31.9185 20.8154 31.8703C20.9969 33.4149 21.7132 34.0482 22.3002 34.303C22.8674 34.5328 23.4973 34.5567 24.0803 34.3706C24.2214 34.7109 24.4844 34.9863 24.8179 35.1429C25.7543 35.5928 27.2043 35.2298 27.9457 34.9402C28.2546 35.7665 29.0327 36.3419 30.056 36.4693C30.1955 36.4878 30.3361 36.4968 30.4769 36.4964C31.2125 36.4964 31.8651 36.2512 32.2455 35.836C32.8401 36.394 33.2919 36.3747 33.5796 36.2454C34.3326 35.9017 34.6126 34.442 34.3307 32.3375C34.3204 32.2607 34.2801 32.1911 34.2185 32.144C34.157 32.097 34.0793 32.0763 34.0024 32.0865C33.9256 32.0968 33.856 32.1371 33.809 32.1987C33.7619 32.2602 33.7412 32.3379 33.7514 32.4148C34.0102 34.3455 33.736 35.5348 33.3344 35.7163C33.1278 35.8109 32.7957 35.6179 32.4212 35.1912C32.3895 35.1554 32.3495 35.1279 32.3047 35.1111C32.26 35.0942 32.2118 35.0886 32.1644 35.0946C32.1168 35.1012 32.0716 35.1194 32.0329 35.1477C31.9941 35.176 31.963 35.2135 31.9423 35.2568C31.7184 35.7221 30.9364 35.9963 30.1216 35.8959C29.778 35.8515 28.6388 35.6237 28.411 34.4845C28.4023 34.4405 28.3834 34.399 28.356 34.3635C28.3285 34.328 28.2931 34.2994 28.2527 34.2799C28.2123 34.2604 28.1681 34.2502 28.1233 34.2502C28.0785 34.2502 28.0343 34.2604 27.9939 34.2799C27.4804 34.5463 25.9049 35.0213 25.0631 34.6177C24.925 34.5539 24.8049 34.4569 24.7136 34.3352C24.6223 34.2136 24.5626 34.0711 24.5398 33.9207C24.5308 33.8717 24.5092 33.8259 24.4771 33.7878C24.4451 33.7497 24.4037 33.7205 24.357 33.7032C24.3102 33.6859 24.2598 33.681 24.2107 33.689C24.1615 33.697 24.1153 33.7176 24.0765 33.7489C23.8231 33.8608 23.5492 33.9186 23.2723 33.9186C22.9954 33.9186 22.7215 33.8608 22.4681 33.7489C21.8117 33.4323 21.4391 32.6889 21.3618 31.5401C21.3591 31.5006 21.3482 31.462 21.33 31.4268C21.3117 31.3916 21.2864 31.3605 21.2556 31.3355C21.2253 31.3097 21.1898 31.2906 21.1515 31.2796C21.1132 31.2686 21.073 31.266 21.0336 31.2717C20.3366 31.3644 19.823 31.2215 19.5025 30.8451C19.0449 30.3064 19.043 29.3757 19.2341 28.7386C19.2461 28.7002 19.2498 28.6598 19.2452 28.6199C19.2405 28.58 19.2275 28.5415 19.2071 28.5069C19.1861 28.4722 19.1581 28.4422 19.1248 28.419C19.0916 28.3957 19.0538 28.3796 19.014 28.3718C18.4483 28.2559 17.7726 27.6419 17.4405 26.9449C17.3073 26.665 17.12 26.1282 17.3536 25.6822C17.3741 25.6415 17.3848 25.5965 17.3848 25.5509C17.3848 25.5053 17.3741 25.4604 17.3536 25.4196C17.3339 25.3791 17.3049 25.3439 17.269 25.3167C17.2331 25.2895 17.1913 25.2712 17.147 25.2632C16.8497 25.1686 16.0909 23.3325 16.477 22.1219C16.496 22.0629 16.4956 21.9994 16.4758 21.9406C16.456 21.8819 16.4178 21.8311 16.367 21.7956C15.529 21.2164 14.7143 19.388 15.2877 18.2392C15.3141 18.187 15.3241 18.128 15.3161 18.0701C15.3082 18.0121 15.2828 17.958 15.2433 17.9148C14.7693 17.3406 14.5227 16.6123 14.5501 15.8682C14.572 15.6119 14.6487 15.3632 14.7749 15.1391C14.9012 14.9149 15.074 14.7204 15.2819 14.5688C15.3398 14.5249 15.3791 14.4608 15.392 14.3893C15.4049 14.3178 15.3904 14.244 15.3514 14.1827C15.1313 13.8293 15.0097 13.0474 15.1854 12.3542C15.2568 12.0743 15.4035 11.7036 15.7086 11.5317C15.7754 11.4936 15.8243 11.4305 15.8446 11.3562C15.8649 11.282 15.8549 11.2028 15.8167 11.1359C15.7786 11.0691 15.7154 11.0202 15.6412 10.9999C15.567 10.9796 15.4877 10.9897 15.4209 11.0278C15.2146 11.161 15.0375 11.3348 14.9004 11.5386C14.7633 11.7424 14.6691 11.972 14.6235 12.2133C14.4536 12.8924 14.4954 13.6072 14.7432 14.2618C14.6568 14.3417 14.5762 14.4275 14.5019 14.5186C8.38139 13.7096 2.74553 5.67964 1.98868 3.99023L1.45966 4.22772C2.3478 6.20867 7.91802 14.0379 14.1679 15.0534Z" fill="#292929"/>
<path d="M2.02919 8.41421C1.98541 8.35097 1.9183 8.30771 1.84263 8.29396C1.76695 8.2802 1.68891 8.29706 1.62567 8.34084C1.56243 8.38462 1.51917 8.45174 1.50541 8.52741C1.49165 8.60309 1.50851 8.68113 1.5523 8.74437C2.76706 10.4514 4.08568 12.0821 5.50068 13.6272C8.55127 16.9346 11.1462 18.6974 13.2237 18.8673H13.2469C13.3237 18.8704 13.3985 18.8428 13.455 18.7907C13.5115 18.7385 13.545 18.6661 13.548 18.5893C13.5511 18.5125 13.5236 18.4376 13.4714 18.3811C13.4193 18.3246 13.3468 18.2911 13.27 18.2881C8.64973 17.9154 2.09484 8.51268 2.02919 8.41421Z" fill="#292929"/>
<path d="M13.3704 23.1188C13.411 23.1376 13.4551 23.1474 13.4998 23.1478C13.5649 23.1476 13.6281 23.1255 13.6791 23.085C13.7301 23.0445 13.7659 22.988 13.7809 22.9247C13.7958 22.8613 13.789 22.7947 13.7615 22.7357C13.7339 22.6767 13.6873 22.6287 13.6292 22.5995C12.7951 22.1863 5.37519 18.4039 1.70291 12.8955C1.66015 12.8315 1.59372 12.7871 1.51822 12.7721C1.44273 12.757 1.36435 12.7726 1.30035 12.8154C1.23634 12.8581 1.19194 12.9246 1.17691 13.0001C1.16188 13.0756 1.17746 13.1539 1.22022 13.2179C1.86509 14.1852 5.48332 19.211 13.3704 23.1188Z" fill="#292929"/>
<path d="M14.135 27.4244H14.1582C14.235 27.4272 14.3098 27.3994 14.3661 27.347C14.4224 27.2947 14.4556 27.2222 14.4584 27.1454C14.4612 27.0686 14.4334 26.9938 14.3811 26.9375C14.3288 26.8812 14.2562 26.848 14.1794 26.8451C10.0592 26.5266 3.31124 19.9543 3.24366 19.8944C3.18861 19.8407 3.11446 19.811 3.03752 19.8119C2.96057 19.8128 2.88714 19.8442 2.83337 19.8993C2.77961 19.9543 2.74991 20.0285 2.75081 20.1054C2.75172 20.1824 2.78315 20.2558 2.8382 20.3095C4.10257 21.5204 5.43158 22.6618 6.81941 23.7289C9.84489 26.0381 12.3066 27.2834 14.135 27.4244Z" fill="#292929"/>
<path d="M15.9345 31.3043C16.0113 31.3076 16.0863 31.2803 16.1429 31.2284C16.1996 31.1764 16.2333 31.1041 16.2366 31.0273C16.24 30.9505 16.2126 30.8755 16.1607 30.8189C16.1087 30.7622 16.0364 30.7285 15.9596 30.7252C11.5594 30.3391 5.9081 25.8991 5.8521 25.8527C5.79194 25.8049 5.71521 25.7828 5.63881 25.7915C5.56241 25.8002 5.49259 25.8389 5.44471 25.8991C5.39684 25.9592 5.37482 26.0359 5.38351 26.1123C5.3922 26.1887 5.43089 26.2585 5.49106 26.3064C5.72854 26.4994 11.3354 30.9047 15.9171 31.3024L15.9345 31.3043Z" fill="#292929"/>
<path d="M17.452 33.6003C17.4889 33.5911 17.5236 33.5747 17.5542 33.552C17.5847 33.5293 17.6105 33.5009 17.63 33.4682C17.6496 33.4356 17.6625 33.3995 17.6681 33.3619C17.6736 33.3242 17.6717 33.2859 17.6625 33.249C17.6532 33.2121 17.6368 33.1774 17.6141 33.1469C17.5915 33.1163 17.563 33.0906 17.5304 33.071C17.4977 33.0515 17.4616 33.0386 17.424 33.033C17.3863 33.0274 17.348 33.0293 17.3111 33.0386C14.8146 33.6602 8.23657 30.3359 8.17093 30.2973C8.13695 30.2801 8.09991 30.2697 8.06193 30.2668C8.02394 30.2639 7.98575 30.2684 7.94953 30.2803C7.87639 30.3042 7.81574 30.3561 7.78092 30.4247C7.7461 30.4934 7.73996 30.573 7.76386 30.6461C7.78776 30.7192 7.83973 30.7799 7.90835 30.8147C8.16128 30.9421 13.5905 33.6911 16.6122 33.6911C16.8947 33.6946 17.1767 33.6642 17.452 33.6003Z" fill="#292929"/>
<path d="M9.68268 58.5964C9.6024 58.6124 9.52834 58.651 9.46911 58.7075C9.40987 58.764 9.36788 58.8361 9.34804 58.9155C9.3282 58.995 9.33131 59.0784 9.35701 59.1561C9.38271 59.2338 9.42994 59.3026 9.49322 59.3546C9.5565 59.4065 9.63322 59.4394 9.71447 59.4495C9.79572 59.4596 9.87816 59.4464 9.9522 59.4114C10.0262 59.3765 10.0888 59.3213 10.1327 59.2522C10.1766 59.1831 10.2 59.1029 10.2001 59.021C10.1869 58.8965 10.1253 58.7821 10.0285 58.7027C9.93163 58.6232 9.80743 58.585 9.68268 58.5964Z" fill="#292929"/>
<path d="M11.2621 58.4438C11.179 58.4494 11.0995 58.4792 11.0332 58.5295C10.9669 58.5797 10.9168 58.6483 10.8889 58.7267C10.8611 58.8051 10.8568 58.8899 10.8765 58.9707C10.8963 59.0515 10.9392 59.1248 11.0001 59.1815C11.0609 59.2382 11.137 59.2759 11.219 59.29C11.301 59.304 11.3854 59.2937 11.4616 59.2605C11.5379 59.2272 11.6028 59.1724 11.6483 59.1027C11.6938 59.0331 11.7179 58.9517 11.7177 58.8685C11.7157 58.8107 11.7023 58.7538 11.6784 58.7012C11.6544 58.6485 11.6202 58.6011 11.5779 58.5617C11.5356 58.5223 11.4859 58.4915 11.4317 58.4713C11.3775 58.4511 11.3199 58.4417 11.2621 58.4438Z" fill="#292929"/>
</svg>
